<svg fill="none" height="64" viewBox="0 0 77 64" width="77" xmlns="http://www.w3.org/2000/svg"><path clip-rule="evenodd" d="m47.4046 0h10.4505v47.8699h-10.4505zm-18.8103 8.3252h-10.4504v39.5447h10.4504zm14.6306 12.4878h-10.4504v27.057h10.4504zm-13.0428 36.2538c.4632-.5732 1.0991-.8597 1.9078-.8597.3572 0 .6967.053 1.0186.159.3259.102.634.2218.9245.3592l.5064-1.1718c-.7459-.369-1.5584-.5535-2.4377-.5535-.8362 0-1.5644.1786-2.1846.5358s-1.0952.8715-1.4249 1.5427c-.3258.6713-.4888 1.4544-.4888 2.3494 0 1.4211.3376 2.5143 1.0128 3.2798.6752.7615 1.6428 1.1423 2.9029 1.1423.8558 0 1.6212-.1276 2.2964-.3827v-1.2071c-.369.1138-.7242.208-1.0657.2826-.3416.0707-.6949.106-1.0599.106-.844 0-1.4897-.2709-1.9373-.8126-.4435-.5417-.6653-1.3405-.6653-2.3965 0-1.0088.2316-1.7998.6948-2.3729zm-24.36454 5.5408c.78903-.7537 1.18354-1.8411 1.18354-3.2621 0-1.3386-.38077-2.3769-1.14232-3.1149-.76154-.738-1.82731-1.1069-3.1973-1.1069h-2.66148v8.6085h2.40828c1.48384 0 2.62026-.3748 3.40928-1.1246zm-3.19141-6.3063c1.92741 0 2.89112 1.0304 2.89112 3.0913 0 2.1041-1.03633 3.1561-3.10899 3.1561h-1.00099v-6.2474zm11.84685 7.4309h1.4132v-8.6085h-1.4132v3.5211h-3.9686v-3.5211h-1.40733v8.6085h1.40733v-3.8803h3.9686zm5.3168 0h-1.3955v-8.6085h4.8578v1.1894h-3.4623v2.6909h3.2445v1.1953h-3.2445zm21.8623 0-.8597-2.3906h-3.2915l-.842 2.3906h-1.4838l3.2208-8.6439h1.531l3.2208 8.6439zm-1.2306-3.6036-.8067-2.3435c-.0589-.157-.1413-.4043-.2473-.7419-.1021-.3376-.1727-.5849-.212-.7419-.106.4828-.261 1.0108-.4652 1.5839l-.7772 2.2434zm8.9204-.3356c.5888-.4789.8832-1.1678.8832-2.0668 0-.8557-.2689-1.5034-.8067-1.9431-.5338-.4396-1.3385-.6594-2.4141-.6594h-2.479v8.6085h1.4073v-3.2208h.895c1.0874 0 1.9255-.2395 2.5143-.7184zm-2.6615-.4652h-.7478v-3.0265h.9775c.6398 0 1.1109.1217 1.4131.3651.3023.2433.4534.6123.4534 1.107 0 .5338-.1688.9264-.5064 1.1776s-.8675.3768-1.5898.3768zm5.5053-4.2041h1.4073v8.6085h-1.4073zm5.4934 8.6085h1.4073v-7.4015h2.532v-1.207h-6.4712v1.207h2.5319zm10.8459 0-.8597-2.3906h-3.2915l-.842 2.3906h-1.4838l3.2208-8.6439h1.531l3.2208 8.6439zm-1.2306-3.6036-.8067-2.3435c-.0589-.157-.1413-.4043-.2473-.7419-.1021-.3376-.1727-.5849-.212-.7419-.106.4828-.261 1.0108-.4651 1.5839l-.7773 2.2434zm5.5111-5.0049h-1.4073v8.6085h5.0521v-1.207h-3.6448z" fill="#b2852f" fill-rule="evenodd"/></svg>