<?xml version="1.0" encoding="UTF-8"?><svg id="Ebene_2" xmlns="http://www.w3.org/2000/svg" viewBox="0 0 615.36 189.59"><defs><style>.cls-1{fill:#1d1d1b;stroke-width:0px;}</style></defs><g id="Ebene_1-2"><path class="cls-1" d="m563.07,56.6v52.17h-20.43V23.65h21.16l31.13,52.77V23.65h20.43v85.12h-20.67l-31.61-52.17Z"/><path class="cls-1" d="m34.33,83.83l8.22-8.21c1.15-1.14,1.15-3,0-4.15l-16.5-16.5c-1.14-1.14-1.14-3,0-4.15l25.24-25.24c1.14-1.15,3-1.15,4.15,0l25.24,25.24c1.14,1.14,1.14,3,0,4.14h0c-1.14,1.15-1.14,3,0,4.14l8.22,8.22c1.14,1.14,3,1.14,4.15,0l12.36-12.36c1.14-1.14,1.14-3,0-4.15L55.43.86c-1.14-1.14-3-1.14-4.15,0L12.39,39.76,1.32,50.82c-1.14,1.14-1.14,3,0,4.15l28.86,28.86c1.14,1.14,3,1.14,4.15,0Z"/><path class="cls-1" d="m40.86,52.75l52.61,52.62c.82.83,2.16.82,2.99,0l9.37-9.38c.82-.82.82-2.16,0-2.99l-51.12-51.12c-.82-.82-2.16-.82-2.99,0l-10.84,10.84-.02.02Z"/><rect class="cls-1" x="23.62" y="77.11" width="17.48" height="76.52" rx="2.11" ry="2.11" transform="translate(-72.09 56.66) rotate(-45)"/><path class="cls-1" d="m72.93,104.82l-9.37,9.37c-.83.82-.82,2.16,0,2.99l17.69,17.68c.82.82.83,2.16,0,2.99l-26.39,26.41c-.82.83-2.16.83-2.99,0l-26.4-26.4c-.82-.82-.82-2.16,0-2.99l1.16-1.16c.82-.83.82-2.16,0-2.99l-9.37-9.37c-.82-.82-2.16-.82-2.99,0l-13.52,13.52c-.82.82-.82,2.16,0,2.99l51.12,51.12c.82.82,2.16.82,2.99,0l51.12-51.12c.82-.82.82-2.16,0-2.99l-30.05-30.05c-.82-.82-2.16-.82-2.99,0Z"/><path class="cls-1" d="m54.8,105.43l9.38-9.37c.83-.82.83-2.16,0-2.99l-9.3-9.3c-.82-.82-2.16-.82-2.99,0l-9.38,9.39c-.83.83-.82,2.16,0,2.99l9.3,9.28c.83.82,2.16.82,2.99,0Z"/><path class="cls-1" d="m221.04,108.77h-20.79v-33.32h-30.4v33.32h-20.8V23.65h20.8v33.08h30.4V23.65h20.79v85.12Z"/><path class="cls-1" d="m247.09,108.77V23.65h53.98v18.6h-33.18v14.23h29.53v18.49h-29.53v15.2h34.16v18.6h-54.96Z"/><path class="cls-1" d="m328.13,108.77V23.65h20.8v66.52h25.53v18.6h-46.34Z"/><path class="cls-1" d="m416.81,108.77h-20.8V23.65h20.8v85.12Z"/><path class="cls-1" d="m479.72,40.68c14.03,0,25.44,11.41,25.44,25.44s-11.41,25.44-25.44,25.44-25.44-11.41-25.44-25.44,11.41-25.44,25.44-25.44m0-18.62c-24.33,0-44.06,19.73-44.06,44.06s19.73,44.06,44.06,44.06,44.06-19.72,44.06-44.06-19.73-44.06-44.06-44.06h0Z"/><path class="cls-1" d="m146.54,148.42c0-10.14,7.52-17.91,18.3-17.91,4.3,0,7.62,1.24,10.09,2.92l-2.37,7.42c-1.83-1.24-4.45-2.42-7.42-2.42-6.33,0-9.79,4.6-9.79,9.99s3.46,10.09,9.79,10.09c2.97,0,5.74-1.19,7.57-2.42l2.37,7.42c-2.47,1.68-5.94,2.92-10.24,2.92-11.18,0-18.3-7.82-18.3-18.01Z"/><path class="cls-1" d="m192.59,158.01l-2.47,7.77h-8.51l11.97-34.63h8.9l11.97,34.63h-8.51l-2.47-7.77h-10.88Zm5.44-17.91l-3.27,10.98h6.53l-3.26-10.98Z"/><path class="cls-1" d="m235.28,153.66h-4.06v12.12h-8.46v-34.63h12.47c7.02,0,11.18,4.35,11.18,11.18s-4.4,11.33-11.13,11.33Zm-4.06-15.24v7.96h2.77c2.47,0,3.76-1.68,3.76-4.06s-1.34-3.91-3.66-3.91h-2.87Z"/><path class="cls-1" d="m264.81,165.78h-8.46v-34.63h8.46v34.63Z"/><path class="cls-1" d="m290.68,138.72v27.06h-8.46v-27.06h-7.47v-7.57h23.4v7.57h-7.47Z"/><path class="cls-1" d="m313.34,158.01l-2.47,7.77h-8.51l11.97-34.63h8.9l11.97,34.63h-8.51l-2.47-7.77h-10.88Zm5.44-17.91l-3.27,10.98h6.53l-3.26-10.98Z"/><path class="cls-1" d="m344.5,165.78v-34.63h8.46v27.06h10.39v7.57h-18.85Z"/></g></svg>