<?xml version="1.0" encoding="UTF-8"?>
<!DOCTYPE svg PUBLIC "-//W3C//DTD SVG 1.0//EN" "http://www.w3.org/TR/2001/REC-SVG-20010904/DTD/svg10.dtd">
<!-- Creator: CorelDRAW 2019 (64-Bit) -->
<svg xmlns="http://www.w3.org/2000/svg" xml:space="preserve" width="5.14882in" height="1.8889in" version="1.0" shape-rendering="geometricPrecision" text-rendering="geometricPrecision" image-rendering="optimizeQuality" fill-rule="evenodd" clip-rule="evenodd"
viewBox="0 0 5148.82 1888.9"
 xmlns:xlink="http://www.w3.org/1999/xlink"
 xmlns:xodm="http://www.corel.com/coreldraw/odm/2003">
 <g id="Layer_x0020_1">
  <metadata id="CorelCorpID_0Corel-Layer"/>
  <path fill="#6D81D5" fill-rule="nonzero" d="M817.83 1004.39l0 -0.98 -768.9 446.23 -39.23 -23.54c-2.94,-0.98 -5.89,-3.92 -7.85,-6.87 -0.98,-2.94 -1.96,-5.88 -1.96,-8.82l-1.96 -926.8c0,-3.92 0.98,-6.87 2.94,-9.81 0.98,-2.94 3.93,-4.9 6.87,-6.87l801.26 -461.93c2.94,-1.96 5.88,-2.94 8.82,-2.94l0 1002.31 0 0 0.01 0z"/>
  <path fill="#2944AE" fill-rule="nonzero" d="M1634.78 1419.24c-1.96,2.94 -3.92,5.89 -6.86,6.87l-801.26 462.91c-2.94,0.98 -6.87,1.96 -9.8,1.96 -2.94,0 -6.87,-0.98 -9.81,-1.96l-798.32 -462.91c-2.94,-0.98 -4.9,-3.92 -6.87,-6.87l815.97 -472.71 816.95 472.71 0 0z"/>
  <path fill="#213993" fill-rule="nonzero" d="M1266.02 1206.42l0 0.98 -419.76 244.2c-8.82,4.9 -18.63,6.87 -28.44,6.87 -9.81,0 -20.59,-1.96 -28.44,-6.87l-420.74 -244.2 0 -0.98 449.17 -259.89 449.18 259.89 -0.98 0 0 0z"/>
  <path fill="#213993" fill-rule="nonzero" d="M1634.78 1419.24c-1.96,2.94 -3.92,5.89 -6.86,6.87l-801.26 462.91c-2.94,0.98 -6.87,1.96 -9.8,1.96 -2.94,0 -6.87,-0.98 -9.81,-1.96l-83.36 -49.04 698.28 -402.1c2.94,-1.96 4.91,-4.9 6.87,-7.85 1.96,-1.96 2.94,-5.88 2.94,-8.82 0,-3.93 -0.98,-6.87 -2.94,-9.81 -1.96,-2.94 -3.92,-4.91 -6.87,-6.87l-697.3 -404.06 93.17 -53.94 816.95 472.71 0 0 0 0 0 0z"/>
  <path fill="#5169CD" fill-rule="nonzero" d="M1637.72 1409.43c0,3.92 -0.98,6.87 -2.94,9.81l-816.95 -472.71 0 -944.45c3.92,0 6.87,0.98 9.81,2.94l799.3 461.93c1.96,1.96 4.91,3.92 6.87,6.87 0.98,2.94 1.96,5.89 1.96,9.81l1.96 925.81 0 0 0 0 -0 0z"/>
  <path fill="#3351C5" fill-rule="nonzero" d="M1637.72 1409.43c0,3.92 -0.98,6.87 -2.94,9.81l-114.74 -65.71 0 -812.05 -702.2 -407.98 0 -131.42c3.92,0 6.87,0.98 9.81,2.94l799.3 461.93c1.96,1.96 4.91,3.92 6.87,6.87 0.98,2.94 1.96,5.89 1.96,9.81l1.96 925.81 0 0 0 0 -0 0z"/>
  <path fill="#213993" fill-rule="nonzero" d="M1029.67 798.43c-188.3,-122.59 -216.74,-255.97 -216.74,-255.97 0,0 -17.65,133.38 -204.97,255.97 -188.3,122.59 -272.65,206.93 -262.83,366.8 8.83,159.86 158.88,206.93 158.88,206.93l628.65 0c0,0 150.06,-47.07 159.86,-206.93 8.83,-159.86 -75.52,-244.2 -262.83,-366.8l0 0 0 0 -0 0z"/>
  <path fill="#9FF7D3" fill-rule="nonzero" d="M537.34 1453.56c-60.81,-2.94 -132.4,-51.98 -143.19,-120.63 -7.85,-47.07 9.81,-136.32 205.95,-212.82 15.69,-6.87 31.38,-11.77 47.07,-16.67 -14.71,-14.71 -28.44,-30.4 -41.19,-46.09 -69.63,-87.29 -96.11,-167.7 -75.52,-225.57 13.73,-36.28 36.29,-60.81 68.65,-72.57 13.73,-4.91 27.46,-7.85 41.19,-8.83 -32.36,-51 -55.9,-101.02 -63.75,-146.13 -10.79,-51 -1.96,-92.19 23.54,-124.56 32.37,-38.25 81.4,-51.98 143.19,-39.23 114.74,23.54 242.24,130.44 271.66,229.49 28.44,97.09 -74.54,168.69 -78.46,171.63l-14.71 -22.56c0.98,-0.98 90.22,-63.75 66.69,-141.23 -26.48,-89.24 -146.13,-189.28 -250.09,-210.85 -36.29,-6.87 -85.32,-7.85 -117.69,30.4 -20.59,25.5 -26.48,58.84 -18.63,102 9.81,46.09 34.33,98.07 71.59,151.04 106.9,7.85 246.17,83.36 345.22,137.3l5.89 2.94c105.92,58.84 175.55,146.13 150.06,192.22 -11.77,22.56 -52.96,49.04 -197.13,-27.46 -125.53,-67.67 -243.22,-172.61 -319.72,-278.53 -16.67,-0.98 -33.35,1.96 -49.04,6.87 -25.5,9.81 -43.15,28.44 -52.96,56.88 -17.65,49.04 7.85,119.65 71.59,199.09 15.69,19.61 32.37,39.23 50.02,56.88 186.34,-41.19 352.08,32.37 420.74,97.09 32.36,30.4 45.11,60.81 37.27,85.32 -4.91,14.71 -19.61,34.33 -65.71,40.21 -113.76,15.69 -282.45,-79.44 -400.14,-193.2 -20.6,4.9 -40.21,11.77 -59.83,19.61 -132.4,51 -200.07,116.71 -189.28,182.42 8.83,53.94 69.63,96.11 117.69,99.06l-0.98 26.48 0 0 -0 0zm164.76 -334.43c111.81,102.98 263.82,187.32 364.83,173.59 24.52,-2.94 40.21,-11.77 43.15,-22.56 4.9,-13.73 -6.87,-34.33 -30.41,-56.88 -65.71,-61.78 -215.76,-121.61 -377.58,-94.15l0 0zm-6.87 -339.33c74.54,96.11 182.42,191.24 295.2,251.07 111.8,59.82 153.98,51.98 160.84,39.23 11.77,-20.59 -28.44,-94.15 -139.26,-154.96l-5.89 -2.94c-84.34,-46.09 -211.84,-115.72 -310.89,-132.4l0 0 0 0 0 -0z"/>
  <path fill="#1EC186" fill-rule="nonzero" d="M961.02 1179.94c-18.63,-24.52 -46.09,-114.74 -58.84,-157.9 -4.91,-16.67 -9.81,-29.42 -13.73,-46.09 8.82,-4.9 15.69,-11.77 20.59,-20.59 4.9,-7.85 6.87,-17.65 6.87,-27.46l-32.37 0c1.96,-3.92 2.94,-8.83 2.94,-13.73 -0.98,-7.85 -1.96,-15.69 -5.89,-22.56l81.41 -60.81 -28.44 -35.3 -66.69 73.56c-3.92,-4.91 -7.85,-8.83 -12.75,-11.77 -6.87,-5.89 -12.75,-12.75 -16.67,-21.57 -3.93,-7.85 -5.89,-16.67 -5.89,-26.48 0,-8.83 0.98,-17.65 4.9,-25.5 3.93,-8.83 8.83,-15.69 15.69,-21.57 4.91,-4.91 9.81,-9.81 12.75,-16.67 2.94,-5.89 4.9,-12.75 4.9,-20.59 0,-6.87 -1.96,-13.73 -4.9,-19.61 -2.94,-6.87 -7.85,-11.77 -12.75,-16.67 -6.87,-5.89 -11.77,-12.75 -15.69,-21.58 -3.92,-7.85 -4.9,-16.67 -4.9,-25.5l0 -15.69c0,-8.83 0.98,-17.65 4.9,-25.5 3.93,-8.83 8.83,-15.69 15.69,-21.58 4.91,-4.9 9.81,-9.81 12.75,-16.67 2.94,-5.88 4.9,-13.73 4.9,-20.59 0,-6.87 -1.96,-13.73 -4.9,-19.61 -2.94,-6.87 -7.85,-12.75 -12.75,-16.67 -6.87,-5.88 -11.77,-13.73 -15.69,-21.57 -3.92,-7.85 -4.9,-16.67 -4.9,-25.5l0 -58.84 16.67 0 0 -11.77c0,-3.92 1.96,-8.82 4.9,-11.77 2.94,-2.94 7.85,-4.91 11.77,-4.91 13.73,0 26.48,-4.9 36.29,-14.71 8.82,-9.81 14.71,-22.56 14.71,-35.31l-74.54 0c7.85,-4.9 14.71,-11.77 19.61,-19.61 4.9,-6.87 8.82,-15.69 9.81,-25.5l6.87 -44.13 -72.57 0 -71.59 0 5.89 44.13c1.96,9.81 4.9,18.63 10.79,25.5 4.9,7.85 11.77,14.71 19.61,19.61l-74.54 0c0,12.75 4.9,25.5 14.71,35.31 9.81,9.81 22.56,14.71 35.31,14.71 4.9,0 8.82,1.96 11.77,4.91 3.92,2.94 5.89,7.85 5.89,11.77l0 11.77 16.67 0 0 58.84c0,8.83 -1.96,17.65 -4.91,25.5 -3.92,7.85 -8.83,15.69 -15.69,21.57 -5.89,3.93 -9.81,9.81 -12.75,16.67 -2.94,5.89 -4.91,12.75 -4.91,19.61 0,6.87 1.96,14.71 4.91,20.59 2.94,6.87 6.87,11.77 12.75,16.67 6.86,5.89 11.77,12.75 15.69,21.58 2.94,7.85 4.91,16.67 4.91,25.5l0 15.69c0,8.83 -1.96,17.65 -4.91,25.5 -3.92,8.83 -8.83,15.69 -15.69,21.58 -5.89,4.9 -9.81,9.81 -12.75,16.67 -2.94,5.89 -4.91,12.75 -4.91,19.61 0,7.85 1.96,14.71 4.91,20.59 2.94,6.87 6.87,11.77 12.75,16.67 6.86,5.88 11.77,12.75 15.69,21.57 2.94,7.85 4.91,16.67 4.91,25.5 0,9.81 -1.96,18.63 -5.89,26.48 -3.92,8.82 -9.81,15.69 -16.67,21.57 -4.9,2.94 -8.83,6.87 -12.75,11.77 -5.88,6.86 -10.79,13.73 -14.71,22.56 -2.94,6.87 -4.91,14.71 -4.91,22.56 0,4.9 0.98,9.81 1.96,13.73l-31.38 0c0,9.81 1.96,19.61 6.87,27.46 4.9,8.83 11.77,15.69 19.61,20.59 -3.92,16.67 -7.85,29.42 -12.75,46.09 -12.75,43.15 -41.19,133.38 -58.85,157.9 -44.13,60.81 -74.54,66.69 -74.54,110.82 0,51 54.92,92.19 105.92,92.19l123.57 0 124.56 0c51,0 105.92,-41.19 105.92,-92.19 -0.98,-44.13 -30.4,-50.02 -74.54,-110.82l0 0 0 0 0 0z"/>
  <polygon fill="#26D192" fill-rule="nonzero" points="605.01,1418.26 523.61,1418.26 523.61,1458.47 605.01,1458.47 "/>
  <path fill="#26D192" fill-rule="nonzero" d="M681.5 1473.18c4.91,0 9.81,-0.98 14.71,-1.96 9.81,-3.93 20.59,-2.94 31.38,0 5.89,1.96 12.75,2.94 18.63,1.96 6.87,-0.98 12.75,-2.94 17.65,-6.87 8.83,-5.89 18.63,-8.83 29.42,-8.83l9.81 0 0 -6.87 25.5 0c0,1.96 0.98,3.93 1.96,5.89 1.96,0.98 3.92,1.96 5.89,1.96l5.88 0 0 -37.27 -5.88 0c-1.96,0 -3.93,0.98 -5.89,1.96 -0.98,0.98 -1.96,2.94 -1.96,5.89l-25.5 0 0 -7.85 -9.81 0c-10.79,-0.98 -20.59,-3.93 -29.42,-9.81 -6.87,-4.91 -14.71,-7.85 -23.54,-7.85 -3.92,0 -8.83,0.98 -13.73,1.96 -9.81,3.92 -20.59,3.92 -31.38,0 -3.93,-1.96 -8.83,-1.96 -12.75,-1.96 -4.91,-0.98 -9.81,0 -13.73,1.96 -10.79,3.92 -22.56,3.92 -33.35,0 -3.92,-1.96 -8.83,-2.94 -13.73,-2.94 -8.83,0 -16.67,2.94 -23.54,7.85 -2.94,1.96 -4.91,3.92 -6.87,6.87 -1.96,2.94 -2.94,5.89 -2.94,9.81l0 20.59c0,2.94 0.98,6.87 2.94,9.81 1.96,2.94 3.92,4.91 6.87,6.87 4.9,3.92 10.79,6.87 17.65,7.85 6.87,0.98 12.75,0 19.61,-1.96 10.79,-3.92 21.57,-3.92 32.36,0 4.91,1.96 9.81,2.94 13.73,2.94l0 0 0 -0z"/>
  <path fill="#213993" fill-rule="nonzero" d="M1992.21 782.54c-32.33,-12.93 -61.43,-35.56 -80.83,-64.67 -19.4,-28.02 -29.1,-62.5 -29.1,-96.99l0 -19.4c0,-1.08 0,-2.16 1.08,-4.31 0,-1.08 1.08,-2.15 2.16,-3.23 1.08,-1.07 2.16,-1.07 3.23,-2.15 1.08,0 3.23,-1.08 4.31,-1.08l100.23 0c2.16,0 5.39,1.08 7.54,3.23 2.16,2.15 3.23,5.39 3.23,7.54l0 12.93c0,23.71 10.78,44.19 32.33,60.35 21.56,16.17 50.65,23.71 87.3,23.71 31.26,0 53.89,-6.47 70.06,-19.4 6.46,-6.47 12.93,-14.01 16.17,-22.63 4.31,-8.62 6.46,-17.24 6.46,-26.94 0,-6.46 -1.08,-12.93 -4.31,-19.4 -2.16,-5.39 -5.39,-10.78 -9.7,-16.17 -11.85,-10.78 -24.79,-19.4 -38.8,-24.79 -16.17,-7.54 -42.04,-18.32 -76.52,-31.26 -34.49,-10.78 -67.9,-24.79 -100.23,-40.95 -25.87,-14.01 -49.57,-33.41 -67.89,-57.12 -18.32,-24.79 -28.02,-54.97 -28.02,-90.53 0,-33.41 8.62,-65.74 28.02,-92.69 18.32,-26.94 44.19,-47.42 75.44,-60.35 34.49,-15.09 73.28,-21.56 111,-21.56 40.96,-1.08 81.91,7.54 119.63,23.71 32.33,14.01 60.35,37.72 80.83,66.82 20.48,29.1 30.18,63.59 30.18,99.15l0 12.94c0,1.07 -1.08,2.15 -1.08,4.31 -1.07,1.08 -1.07,2.16 -2.15,3.23 -1.08,1.08 -2.16,1.08 -3.23,2.16 -2.16,0 -3.23,1.08 -4.31,1.08l-101.31 0c-1.08,0 -3.23,-1.08 -4.31,-1.08 -1.08,-1.08 -2.16,-1.08 -3.23,-2.16 -1.08,-1.08 -2.16,-2.16 -2.16,-3.23 -1.08,-2.15 -1.08,-3.23 -1.08,-4.31l0 -7.55c0,-11.85 -2.15,-23.71 -7.54,-34.49 -5.39,-10.78 -12.93,-20.47 -22.63,-28.02 -20.47,-17.24 -47.42,-25.87 -82.98,-25.87 -26.94,0 -48.5,5.39 -64.67,17.24 -7.54,5.39 -12.93,12.93 -17.24,21.55 -4.31,8.63 -6.46,17.24 -5.39,26.94 -1.08,14.01 4.31,26.94 12.93,36.64 11.85,11.85 25.87,21.56 40.95,26.94 17.24,8.62 45.26,19.4 82.99,32.33 33.41,11.85 65.74,25.87 98.07,40.95 24.79,12.93 46.34,30.18 63.59,51.73 19.4,23.71 28.02,53.89 28.02,90.53 0,54.96 -19.4,99.15 -60.35,130.41 -39.87,32.33 -94.84,48.5 -163.81,48.5 -42.03,1.08 -84.06,-7.55 -122.86,-22.63l0 0 0 0 0 0z"/>
  <path fill="#213993" fill-rule="nonzero" d="M2767.1 381.63c29.1,29.1 43.11,67.89 43.11,117.47l0 287.76c0,2.16 0,3.23 -1.08,4.31 0,1.08 -1.08,2.16 -2.15,3.23 -1.08,1.07 -2.16,2.15 -3.23,2.15 -1.08,1.08 -2.16,1.08 -4.31,1.08l-102.38 0c-1.08,0 -2.16,0 -4.31,-1.08 -1.08,0 -2.16,-1.08 -3.23,-2.15 -1.08,-1.08 -1.08,-2.16 -2.16,-3.23 0,-1.08 -1.08,-2.16 -1.08,-4.31l0 -262.97c1.08,-20.48 -5.39,-40.95 -19.4,-57.12 -6.47,-6.47 -15.09,-11.85 -23.71,-16.17 -9.7,-3.23 -18.32,-5.39 -28.02,-5.39 -9.7,0 -19.4,2.16 -29.1,5.39 -8.63,4.31 -17.24,9.7 -23.71,16.17 -12.93,16.17 -20.47,36.64 -19.4,57.12l0 262.97c0,2.16 -1.08,3.23 -1.08,4.31 -1.08,1.08 -1.08,2.16 -2.16,3.23 -1.08,1.07 -2.16,2.15 -3.23,2.15 -2.16,1.08 -3.23,1.08 -4.31,1.08l-102.38 0c-2.16,0 -3.23,0 -4.31,-1.08 -1.08,0 -2.15,-1.08 -3.23,-2.15 -1.07,-1.08 -2.15,-2.16 -2.15,-3.23 -1.08,-1.08 -1.08,-2.16 -1.08,-4.31l0 -594.91c0,-1.08 0,-2.16 1.08,-3.23 0,-2.16 1.08,-3.23 2.15,-4.31 1.08,0 2.16,-1.08 3.23,-2.15 1.08,0 2.16,0 4.31,0l102.38 0c1.08,0 2.16,0 4.31,0 1.08,1.07 2.16,2.15 3.23,2.15 1.08,1.08 1.08,2.16 2.16,4.31 0,1.08 1.08,2.16 1.08,3.23l0 195.07c0,0 0,1.08 0,2.16 0,0 1.08,1.08 1.08,1.08 1.08,0 1.08,0 1.08,0 0,0 1.07,0 1.07,0 0,0 0,0 0,0 1.08,0 1.08,-1.08 1.08,-1.08 23.71,-33.41 59.28,-50.65 106.7,-50.65 47.42,0 85.14,14.01 113.17,43.11l0 0 0 0 -0.01 -0z"/>
  <path fill="#213993" fill-rule="nonzero" d="M3299.5 599.33c0,2.16 -1.08,3.23 -1.08,4.31 -1.08,2.16 -1.08,3.23 -2.15,4.31 -1.08,1.08 -3.23,1.08 -4.31,2.16 -1.08,0 -3.23,0 -4.31,0l-270.51 0c-4.31,0 -5.39,1.08 -4.31,4.31 2.16,11.86 5.39,23.71 9.7,35.57 15.09,32.33 46.34,49.57 93.76,49.57 17.24,0 34.49,-4.31 49.57,-11.85 15.09,-8.63 29.1,-19.4 38.8,-34.49 1.08,-1.08 2.15,-2.16 3.23,-3.23 1.07,-1.08 3.23,-1.08 4.31,-2.16 2.16,1.08 4.31,2.16 6.47,4.31l62.51 62.51c3.23,2.16 4.31,4.31 5.39,7.54 -1.07,3.23 -2.15,5.39 -4.31,7.55 -19.4,23.71 -45.26,43.11 -74.36,56.04 -31.26,12.93 -65.74,19.4 -100.23,19.4 -50.65,0 -92.69,-11.85 -127.17,-34.49 -35.56,-22.63 -61.43,-56.04 -75.44,-95.92 -11.85,-29.1 -18.32,-67.89 -18.32,-115.31 -1.08,-29.1 4.31,-57.12 12.93,-85.14 12.93,-39.88 37.72,-74.37 71.13,-99.15 33.41,-24.79 73.28,-37.72 119.63,-37.72 58.2,0 105.62,17.24 141.19,50.65 34.49,34.49 56.04,79.75 64.67,136.87 3.23,24.79 4.31,49.57 3.23,74.36l0 0 0 0 0 0zm-281.28 -102.38c-3.23,8.62 -4.31,18.32 -6.47,28.02 0,1.08 0,1.08 0,2.16 1.08,0 1.08,1.08 1.08,1.08 1.08,1.08 1.08,1.08 2.16,1.08 0,0 1.08,0 1.08,0l153.04 0c3.23,0 4.31,-1.08 3.23,-4.31 -3.23,-17.24 -4.31,-24.79 -4.31,-24.79 -4.31,-16.17 -14.01,-30.18 -28.02,-40.96 -14.01,-9.7 -31.25,-15.09 -48.5,-14.01 -36.65,0 -61.43,17.24 -73.29,51.73l0 0 0 0 0 0 0 0z"/>
  <path fill="#213993" fill-rule="nonzero" d="M3779.09 599.33c0,2.16 -1.08,3.23 -1.08,4.31 -1.08,2.16 -1.08,3.23 -2.16,4.31 -2.16,1.08 -3.23,1.08 -4.31,2.16 -1.08,0 -3.23,0 -4.31,0l-271.59 0c-3.23,0 -4.31,1.08 -3.23,4.31 2.16,11.86 5.39,23.71 9.7,35.57 15.09,32.33 46.34,49.57 92.69,49.57 17.24,0 34.49,-4.31 50.65,-11.85 15.09,-8.63 28.02,-19.4 38.8,-34.49 0,-1.08 1.08,-2.16 3.23,-3.23 1.08,-1.08 2.16,-1.08 4.31,-2.16 2.15,1.08 4.31,2.16 6.46,4.31l62.51 62.51c2.16,2.16 4.31,4.31 4.31,7.54 0,3.23 -1.08,5.39 -3.23,7.55 -19.4,23.71 -45.26,43.11 -74.36,56.04 -32.33,12.93 -65.74,19.4 -100.23,19.4 -50.65,0 -92.68,-11.85 -128.25,-34.49 -34.49,-22.63 -61.43,-57.12 -74.36,-95.92 -12.93,-29.1 -19.4,-67.89 -19.4,-115.31 0,-29.1 4.31,-58.2 14.01,-85.14 11.85,-39.88 36.65,-75.44 70.05,-100.23 34.49,-24.79 74.37,-36.64 120.71,-36.64 58.2,0 104.54,17.24 140.1,50.65 35.57,34.49 57.12,79.75 64.67,136.87 4.31,24.79 5.39,49.57 4.31,74.36l0 0 0 0 0 0zm-281.29 -102.38c-3.23,8.62 -5.39,18.32 -6.46,28.02 0,1.08 0,1.08 0,2.16 0,0 1.08,1.08 1.08,1.08 1.07,1.08 1.07,1.08 1.07,1.08 1.08,0 2.16,0 2.16,0l151.96 0c3.23,0 4.31,-1.08 3.23,-4.31 -2.16,-17.24 -4.31,-24.79 -4.31,-24.79 -4.31,-16.17 -14.01,-30.18 -26.94,-40.96 -15.09,-9.7 -32.33,-15.09 -49.57,-14.01 -36.64,0 -60.35,17.24 -72.21,51.73l0 0 -0 0z"/>
  <path fill="#213993" fill-rule="nonzero" d="M3925.67 786.85c-25.87,-8.62 -49.57,-24.79 -67.9,-46.34 -15.09,-19.4 -23.71,-43.11 -23.71,-67.9l0 -8.62c0,-1.08 0,-3.23 1.08,-4.31 0,-1.08 1.08,-2.16 2.16,-3.23 1.08,-1.07 2.16,-2.15 3.23,-2.15 1.08,-1.08 2.15,-1.08 4.31,-1.08l97 0c3.23,0 5.39,1.08 7.55,3.23 2.15,2.15 3.23,4.31 3.23,7.54l0 1.08c0,12.93 6.47,23.71 21.56,32.33 16.17,9.7 34.49,15.09 53.89,14.01 17.24,1.08 33.41,-3.23 48.5,-11.85 11.85,-7.55 18.32,-17.24 18.32,-29.1 0,-5.39 -2.16,-10.78 -4.31,-15.09 -3.23,-4.31 -7.54,-7.55 -11.85,-8.63 -16.17,-7.54 -33.41,-12.93 -51.73,-17.24 -21.55,-5.39 -44.19,-11.85 -64.66,-20.47 -37.72,-12.94 -67.9,-28.02 -89.45,-47.42 -22.63,-18.32 -33.41,-45.26 -33.41,-80.83 -1.08,-19.4 3.23,-39.87 11.85,-58.2 8.62,-17.24 22.63,-33.41 38.8,-45.26 33.41,-24.79 77.6,-37.72 133.64,-37.72 33.41,-1.08 66.82,5.39 98.07,17.24 25.87,10.78 48.5,28.02 65.74,50.65 15.09,21.55 22.63,47.42 22.63,74.36 0,1.08 0,3.23 -1.07,4.31 0,1.08 -1.08,2.16 -2.16,3.23 -1.08,1.08 -2.16,2.15 -3.23,2.15 -1.08,1.08 -2.16,1.08 -4.31,1.08l-93.76 0c-1.08,0 -2.16,0 -3.23,-1.08 -2.15,0 -3.23,-1.07 -4.31,-2.15 0,-1.08 -1.08,-2.16 -2.16,-3.23 0,-1.08 0,-3.23 0,-4.31 0,-12.93 -7.55,-23.71 -20.48,-32.33 -12.93,-8.62 -30.18,-14.01 -51.73,-12.93 -16.17,-1.08 -33.41,2.16 -47.42,9.7 -5.39,3.23 -10.78,7.55 -14.01,11.86 -3.23,5.39 -4.31,11.85 -4.31,17.24 0,6.47 1.08,11.86 4.31,16.17 3.23,5.39 7.54,8.63 12.93,10.78 19.4,7.54 39.87,14.01 60.35,18.32 6.46,2.15 14.01,3.23 22.63,5.39 7.55,2.16 16.17,5.39 25.87,7.55 42.04,12.93 74.37,28.02 98.07,47.42 23.71,19.4 36.65,47.42 36.65,85.14 0,43.11 -17.24,76.52 -51.73,101.31 -34.49,24.79 -80.83,36.65 -137.95,36.65 -35.57,0 -70.05,-5.39 -103.46,-17.24l0 0 0 0 -0.01 0z"/>
  <path fill="#213993" fill-rule="nonzero" d="M4638.05 381.63c28.02,29.1 43.11,67.89 43.11,117.47l0 287.76c0,2.16 -1.08,3.23 -1.08,4.31 -1.07,1.08 -1.07,2.16 -2.15,3.23 -1.08,1.07 -2.16,2.15 -3.23,2.15 -1.08,1.08 -3.23,1.08 -4.31,1.08l-102.38 0c-2.16,0 -3.23,0 -4.31,-1.08 -1.08,0 -2.16,-1.08 -3.23,-2.15 -1.08,-1.08 -2.16,-2.16 -2.16,-3.23 -1.08,-1.08 -1.08,-2.16 -1.08,-4.31l0 -262.97c1.08,-20.48 -6.46,-40.95 -19.4,-57.12 -7.55,-6.47 -15.09,-11.85 -24.79,-16.17 -8.62,-3.23 -18.32,-5.39 -28.02,-5.39 -9.7,0 -19.4,2.16 -28.02,5.39 -9.7,4.31 -17.24,9.7 -23.71,16.17 -14.01,16.17 -21.56,36.64 -20.48,57.12l0 262.97c0,2.16 0,3.23 0,4.31 -1.08,1.08 -2.16,2.16 -3.23,3.23 0,1.07 -2.16,2.15 -3.23,2.15 -1.08,1.08 -2.16,1.08 -4.31,1.08l-102.38 0c-1.08,0 -2.16,0 -4.31,-1.08 -1.08,0 -2.16,-1.08 -3.23,-2.15 -1.07,-1.08 -1.07,-2.16 -2.15,-3.23 0,-1.08 -1.08,-2.16 -1.08,-4.31l0 -594.91c0,-1.08 1.08,-2.16 1.08,-3.23 1.08,-2.16 1.08,-3.23 2.15,-4.31 1.08,0 2.16,-1.08 3.23,-2.15 2.16,0 3.23,0 4.31,0l102.38 0c2.16,0 3.23,0 4.31,0 1.08,1.07 3.23,2.15 3.23,2.15 1.08,1.08 2.16,2.16 3.23,4.31 0,1.08 0,2.16 0,3.23l0 195.07c0,0 0,1.08 1.08,2.16 0,0 0,1.08 1.08,1.08 0,0 0,0 1.08,0 0,0 0,0 0,0 1.07,0 1.07,0 1.07,0 0,0 0,-1.08 0,-1.08 24.79,-33.41 60.35,-50.65 107.78,-50.65 47.42,0 85.14,14.01 113.17,43.11l0 0 0 0 -0.01 -0z"/>
  <path fill="#213993" fill-rule="nonzero" d="M5051.9 357.91c26.94,11.85 51.73,30.18 68.98,53.89 17.24,22.63 25.87,49.57 25.87,76.52l0 298.53c0,2.16 -1.08,3.23 -1.08,4.31 -1.08,1.08 -1.08,2.16 -2.16,3.23 -1.08,1.07 -2.16,2.15 -3.23,2.15 -2.16,1.08 -3.23,1.08 -4.31,1.08l-102.39 0c-2.16,0 -3.23,0 -4.31,-1.08 -1.07,0 -3.23,-1.08 -3.23,-2.15 -1.08,-1.08 -2.16,-2.16 -3.23,-3.23 0,-1.08 0,-2.16 0,-4.31l0 -29.1c0,0 0,-1.08 -1.08,-2.16 0,0 0,-1.08 -1.08,-1.08 -1.08,-1.08 -2.16,0 -3.23,2.16 -24.79,32.33 -64.67,48.5 -118.55,48.5 -45.26,0 -82.99,-11.85 -111.01,-34.49 -28.02,-21.56 -42.03,-54.96 -42.03,-98.07 0,-45.26 16.17,-79.75 47.42,-104.54 31.26,-25.87 76.52,-37.72 135.8,-37.72l88.37 0c1.08,0 2.16,0 2.16,0 1.08,0 1.08,-1.08 2.16,-1.08 0,-1.08 0,-1.08 0,-2.16 1.08,0 1.08,-1.08 1.08,-1.08l0 -19.4c0,-8.63 -1.08,-17.24 -4.31,-24.79 -3.23,-7.54 -7.55,-15.09 -14.01,-20.48 -11.85,-10.78 -29.1,-16.17 -52.81,-16.17 -15.09,-1.07 -31.26,2.16 -45.26,8.63 -5.39,3.23 -9.7,7.54 -14.01,11.85 -4.31,4.31 -7.54,9.7 -8.62,16.17 0,1.08 -1.08,2.16 -1.08,3.23 -1.08,1.08 -2.16,2.16 -3.23,3.23 -1.08,1.08 -2.16,1.08 -3.23,2.16 -1.08,0 -3.23,0 -4.31,0l-105.62 -14.01c-7.54,-1.08 -10.78,-4.31 -9.7,-7.55 2.16,-24.79 11.85,-48.5 29.1,-66.82 18.32,-21.56 42.03,-37.72 68.98,-47.42 30.18,-10.78 62.5,-17.24 94.84,-16.17 35.57,-1.08 70.06,6.46 102.39,19.4l0 0 0 0 -0.01 0zm-56.04 334.1c8.62,-5.39 15.09,-14.01 19.4,-22.63 5.39,-8.63 7.55,-19.4 7.55,-29.1l0 -32.33c0,0 0,-1.08 0,-1.08 -1.08,-1.08 -1.08,-1.08 -1.08,-2.16 -1.08,0 -1.08,0 -2.16,0 0,-1.08 -1.08,-1.08 -1.08,-1.08l-63.59 0c-26.94,0 -47.42,5.39 -61.43,15.09 -7.54,4.31 -12.93,10.78 -17.24,18.32 -4.31,7.54 -6.46,16.17 -5.39,24.79 -1.08,6.47 1.08,14.01 3.23,20.48 3.23,6.47 7.54,11.85 12.93,16.17 12.93,9.7 29.1,15.09 45.26,14.01 22.63,0 45.26,-6.47 63.59,-20.48l0 0 0 0z"/>
  <g id="_2352014425312">
   <path fill="#1EC186" fill-rule="nonzero" d="M2429.11 1080.28l-272.04 0c0,0 -0.97,0 -0.97,0 0,0 -0.97,0 -0.97,0 0,0.97 -0.97,0.97 -0.97,0.97 0,0.97 0,0.97 0,1.94l0 182.97c0,0 0,0.97 0,0.97 0.97,0 0.97,0.97 0.97,0.97 0,0 0.97,0.97 0.97,0.97 0,0 0.97,0 0.97,0l190.72 0c0.97,0 1.94,0 2.9,0 0.97,0 1.94,0.97 1.94,1.94 0.97,0 1.94,0.97 1.94,1.94 0,0.97 0,1.94 0,2.9l0 31.95c0,0.97 0,1.94 0,2.9 0,0.97 -0.97,1.94 -1.94,1.94 0,0.97 -0.97,1.94 -1.94,1.94 -0.97,0 -1.94,0.97 -2.9,0l-190.72 0c0,0 -0.97,0 -0.97,0 0,0.97 -0.97,0.97 -0.97,0.97 0,0 0,0.97 -0.97,0.97 0,0.97 0,0.97 0,0.97l0 227.5c0,0.97 0,2.91 0,3.87 0,0 -0.97,0.97 -1.94,1.94 0,0.97 -0.97,0.97 -1.94,1.94 -0.97,0 -1.94,0 -2.9,0l-37.76 0c-0.97,0 -1.94,0 -2.91,0 -0.97,-0.97 -1.94,-0.97 -2.9,-1.94 -0.97,-0.97 -0.97,-1.94 -1.94,-1.94 0,-0.97 0,-2.91 0,-3.87l0 -503.42c0,-0.97 0,-1.94 0,-2.9 0.97,-0.97 0.97,-1.94 1.94,-2.9 0.97,-0.97 1.94,-0.97 2.9,-1.94 0.97,0 1.94,0 2.91,0l319.48 0c0.97,0 1.94,0 2.9,0.97 0.97,0 1.94,0 1.94,0.97 0.97,0.97 1.94,1.94 1.94,2.9 0,0.97 0,1.94 0,2.9l0 30.98c0,0.97 0,1.94 0,2.9 0,0.97 -0.97,1.94 -1.94,2.91 0,0.97 -0.97,0.97 -1.94,0.97 -0.97,0.97 -1.94,0.97 -2.9,0.97l0 0 0 0 0 -0.01z"/>
   <path fill="#1EC186" fill-rule="nonzero" d="M2536.57 1544.98l0 -503.42c0,-0.97 0,-1.94 0,-2.91 0.97,-0.97 0.97,-1.94 1.94,-2.9 0.97,-0.97 0.97,-0.97 1.94,-0.97 0.97,-0.97 1.94,-0.97 3.87,-0.97l36.79 0c1.94,0 2.9,0 3.87,0.97 0.97,0 0.97,0 1.94,0.97 0.97,0.97 0.97,1.94 1.94,2.9 0,0.97 0,1.94 0,2.91l0 503.42c0,0.97 0,2.9 0,3.87 0,0 -0.97,0.97 -1.94,1.94 -0.97,0.97 -0.97,0.97 -1.94,1.94 -0.97,0 -1.94,0 -3.87,0l-36.79 0c-1.94,0 -2.9,0 -3.87,0 -0.97,-0.97 -0.97,-0.97 -1.94,-1.94 -0.97,-0.97 -1.94,-1.94 -1.94,-1.94 0,-0.97 0,-2.9 0,-3.87z"/>
   <path fill="#1EC186" fill-rule="nonzero" d="M3058.38 1033.81l37.76 0c0.97,0 1.94,0 2.9,0.97 0.97,0 1.94,0 1.94,0.97 0.97,0.97 1.94,1.94 1.94,2.91 0,0.97 0,1.94 0,2.9l0 503.42c0,0.97 0,2.9 0,3.87 0,0 -0.97,0.97 -1.94,1.94 0,0.97 -0.97,0.97 -1.94,1.94 -0.97,0 -1.94,0 -2.9,0l-37.76 0c-0.97,0 -2.9,-0.97 -4.84,-0.97 -0.97,-0.97 -2.9,-2.91 -3.87,-3.87l-251.71 -411.44c-0.97,-1.94 -0.97,-1.94 -1.94,-1.94 -0.97,0 -1.94,0.97 -1.94,2.9l0.97 408.54c0,0.97 0,1.94 0,2.9 -0.97,0.97 -0.97,1.94 -1.94,1.94 -0.97,0.97 -1.94,1.94 -2.9,1.94 -0.97,0 -1.94,0 -2.9,0l-37.76 0c-0.97,0 -1.94,0 -2.9,0 -0.97,0 -1.94,-0.97 -1.94,-1.94 -0.97,0 -1.94,-0.97 -1.94,-1.94 0,-0.97 0,-1.94 0,-2.9l0 -504.39c0,-0.97 0,-1.94 0,-2.9 0,-0.97 0.97,-1.94 1.94,-2.91 0,-0.97 0.97,-0.97 1.94,-1.94 0.97,0 1.94,0 2.9,0l37.76 0c0.97,0 2.9,0.97 4.84,1.94 0.97,0.97 2.9,1.94 3.87,3.87l251.71 410.48c0.97,1.94 0.97,2.9 1.94,1.94 1.94,0 1.94,-0.97 1.94,-1.94l-0.97 -408.54c0,-0.97 0,-1.94 0.97,-2.91 0,-0.97 0,-1.94 0.97,-2.9 0.97,-0.97 1.94,-0.97 2.9,-0.97 0.97,-0.97 1.94,-0.97 2.9,-0.97l0 0 0 0 0 -0z"/>
   <path fill="#1EC186" fill-rule="nonzero" d="M3555.02 1546.91l-30.01 -92.94c0,-0.97 0,-1.94 -0.97,-1.94 0,-0.97 -0.97,-0.97 -1.94,-0.97l-220.73 0c-0.97,0 -1.94,0 -1.94,0.97 -0.97,0 -0.97,0.97 -0.97,1.94l-30.01 92.94c0,1.94 -1.94,2.9 -2.9,4.84 -1.94,0.97 -3.87,0.97 -5.81,0.97l-39.69 0c-5.81,0 -7.75,-2.91 -5.81,-7.75l163.61 -505.35c0,-1.94 0.97,-2.9 2.91,-3.87 1.94,-0.97 3.87,-1.94 5.81,-1.94l50.34 0c1.94,0 3.87,0.97 4.84,1.94 1.94,0.97 2.9,1.94 3.87,3.87l163.61 505.35 0.97 2.9c0,2.91 -1.94,4.84 -6.78,4.84l-39.69 0c-1.94,0 -3.87,0 -5.81,-0.97 -0.97,-1.94 -2.9,-2.91 -2.9,-4.84l0 0 0 0 0 0zm-242.03 -139.41c0.97,0 1.94,0.97 2.9,0.97l190.72 0c0.97,0 0.97,0 1.94,0 0,-0.97 0.97,-0.97 0.97,-0.97 0,-0.97 0.97,-0.97 0.97,-1.94 0,0 0,-0.97 -0.97,-0.97l-95.85 -302.05c0,-0.97 0,-0.97 -0.97,-0.97 0,-0.97 -0.97,-0.97 -0.97,-0.97 -0.97,0 -0.97,0 -1.94,0.97 0,0 0,0 0,0.97l-96.81 302.05c0,0 0,0.97 0,0.97 0,0.97 0,0.97 0,1.94l0 0 0 0z"/>
   <path fill="#1EC186" fill-rule="nonzero" d="M4036.17 1033.81l37.76 0c0.97,0 1.94,0 2.91,0 0.97,0.97 1.94,0.97 1.94,1.94 0.97,0.97 1.94,1.94 1.94,2.91 0,0.97 0,1.94 0,2.9l0 503.42c0,0.97 0,1.94 0,2.9 0,0.97 -0.97,1.94 -1.94,2.91 0,0.97 -0.97,0.97 -1.94,1.94 -0.97,0 -1.94,0 -2.91,0l-37.76 0c-0.97,0 -2.9,-0.97 -4.84,-1.94 -0.97,0 -2.91,-1.94 -3.87,-2.91l-251.71 -411.44c-0.97,-1.94 -0.97,-1.94 -1.94,-1.94 -0.97,0 -1.94,0.97 -1.94,2.91l0.97 408.54c0,0.97 0,1.94 0,2.91 -0.97,0.97 -0.97,1.94 -1.94,1.94 -0.97,0.97 -1.94,1.94 -2.9,1.94 -0.97,0 -1.94,0 -2.91,0l-37.76 0c-0.97,0 -1.94,0 -2.9,0 -0.97,0 -1.94,-0.97 -2.91,-1.94 0,0 -0.97,-0.97 -0.97,-1.94 -0.97,-0.97 -0.97,-1.94 0,-2.91l0 -504.39c-0.97,-0.97 0,-1.94 0,-2.9 0,-0.97 0.97,-1.94 0.97,-2.9 0.97,-0.97 1.94,-0.97 2.91,-1.94 0.97,0 1.94,0 2.9,0l36.79 0c1.94,0 3.87,0.97 5.81,1.94 0.97,0.97 2.9,1.94 3.87,3.87l251.71 410.48c0.97,1.94 0.97,2.9 1.94,1.94 0.97,0 1.94,-0.97 1.94,-1.94l-0.97 -408.54c0,-0.97 0,-1.94 0,-2.9 0.97,-0.97 0.97,-1.94 1.94,-2.91 0.97,-0.97 1.94,-0.97 2.91,-1.94 0.97,0 1.94,0 2.9,0l0 0 0 0z"/>
   <path fill="#1EC186" fill-rule="nonzero" d="M4301.43 1539.17c-26.14,-12.59 -47.44,-32.91 -60.99,-58.09 -15.49,-26.14 -23.24,-56.15 -22.27,-86.16l0 -203.3c-0.97,-30.01 6.78,-60.02 22.27,-86.16 14.52,-24.2 34.85,-43.57 60.99,-57.12 28.08,-13.56 59.06,-21.3 91,-20.33 30.98,-0.97 61.96,5.81 90.04,20.33 26.14,12.59 47.44,31.94 61.96,56.15 14.52,25.17 22.27,54.21 21.3,83.26 0,1.94 0,2.9 0,3.87 -0.97,0.97 -0.97,1.94 -1.94,2.91 -0.97,0 -0.97,0.97 -1.94,0.97 -0.97,0.97 -1.94,0.97 -2.9,0.97l-37.76 1.94c-4.84,0 -7.75,-1.94 -7.75,-6.78l0 -1.94c0,-34.85 -10.65,-62.93 -32.92,-84.22 -22.27,-21.3 -51.31,-31.95 -88.1,-30.98 -36.79,0 -65.83,10.65 -88.09,30.98 -22.27,21.3 -32.92,49.37 -32.92,84.22l0 207.17c0,34.85 10.65,62.93 32.92,84.23 22.27,21.3 51.31,31.95 88.09,31.95 36.79,0 65.83,-10.65 88.1,-31.95 22.27,-20.33 32.92,-48.41 32.92,-84.23l0 -0.97c0,-4.84 2.9,-6.78 7.75,-6.78l37.76 1.94c4.84,0 6.78,1.94 6.78,6.78 0.97,30.01 -6.78,59.06 -21.3,85.2 -14.52,24.2 -35.82,43.57 -60.99,56.15 -29.04,14.52 -60.02,21.3 -91,20.33 -31.95,0.97 -62.93,-6.78 -91,-20.33l0 0 0 0 0 0z"/>
   <path fill="#1EC186" fill-rule="nonzero" d="M5025.58 1080.28l-272.04 0c-0.97,0 -0.97,0 -0.97,0 -0.97,0 -0.97,0 -1.94,0 0,0.97 0,0.97 0,0.97 0,0.97 0,0.97 0,1.94l0 182.97c0,0 0,0.97 0,0.97 0,0 0,0.97 0,0.97 0.97,0 0.97,0.97 1.94,0.97 0,0 0,0 0.97,0l190.72 0c0.97,0 1.94,0 2.91,0 0.97,0 1.94,0.97 2.9,1.94 0,0.97 0.97,0.97 0.97,1.94 0.97,0.97 0.97,1.94 0.97,2.9l0 31.95c0,0.97 0,1.94 -0.97,2.9 0,0.97 -0.97,1.94 -0.97,1.94 -0.97,0.97 -1.94,1.94 -2.9,1.94 -0.97,0 -1.94,0 -2.91,0l-190.72 0c-0.97,0 -0.97,0 -0.97,0 -0.97,0.97 -0.97,0.97 -1.94,0.97 0,0 0,0.97 0,0.97 0,0.97 0,0.97 0,0.97l0 186.84c0,0 0,0 0,0.97 0,0 0,0.97 0,0.97 0.97,0 0.97,0 1.94,0 0,0.97 0,0.97 0.97,0.97l272.04 0c0.97,-0.97 1.94,0 2.9,0 0.97,0 1.94,0.97 2.9,1.94 0,0 0.97,0.97 0.97,1.94 0.97,0.97 0.97,1.94 0.97,2.91l0 30.98c0,0.97 0,1.94 -0.97,2.91 0,0.97 -0.97,1.94 -0.97,2.9 -0.97,0.97 -1.94,0.97 -2.9,1.94 -0.97,0 -1.94,0 -2.9,0l-320.44 0c-0.97,0 -1.94,0 -2.91,0 -0.97,-0.97 -1.94,-0.97 -2.9,-1.94 0,-0.97 -0.97,-1.94 -0.97,-2.9 -0.97,-0.97 -0.97,-1.94 0,-2.91l0 -503.42c-0.97,-0.97 -0.97,-1.94 0,-2.9 0,-0.97 0.97,-1.94 0.97,-2.9 0.97,-0.97 1.94,-0.97 2.9,-1.94 0.97,0 1.94,0 2.91,0l320.44 0c0.97,0 1.94,0 2.9,0 0.97,0.97 1.94,0.97 2.9,1.94 0,0.97 0.97,1.94 0.97,2.9 0.97,0.97 0.97,1.94 0.97,2.9l0 30.98c0,0.97 0,1.94 -0.97,2.9 0,0.97 -0.97,1.94 -0.97,2.91 -0.97,0.97 -1.94,0.97 -2.9,0.97 -0.97,0.97 -1.94,0.97 -2.9,0.97l0 0 0 -0.01z"/>
  </g>
 </g>
</svg>
