<?xml version="1.0" standalone="no"?>
<!DOCTYPE svg PUBLIC "-//W3C//DTD SVG 20010904//EN"
 "http://www.w3.org/TR/2001/REC-SVG-20010904/DTD/svg10.dtd">
<svg version="1.0" xmlns="http://www.w3.org/2000/svg"
 width="777.000000pt" height="777.000000pt" viewBox="0 0 777.000000 777.000000"
 preserveAspectRatio="xMidYMid meet">
<metadata>
Created by potrace 1.14, written by Peter Selinger 2001-2017
</metadata>
<g transform="translate(0.000000,777.000000) scale(0.100000,-0.100000)"
fill="#000000" stroke="none">
<path d="M3398 7763 c-10 -3 -57 -27 -105 -55 -49 -28 -101 -58 -118 -68 -16
-9 -223 -129 -460 -265 -236 -136 -450 -259 -475 -273 -25 -14 -49 -28 -55
-32 -5 -4 -28 -18 -50 -30 -22 -12 -186 -107 -365 -210 -179 -103 -341 -197
-360 -207 -95 -54 -748 -432 -767 -444 -12 -7 -31 -29 -42 -50 l-21 -37 0
-2207 c0 -1998 2 -2210 16 -2241 15 -32 54 -61 154 -117 25 -13 101 -57 170
-97 69 -40 145 -84 170 -98 25 -14 88 -50 140 -80 52 -30 109 -62 125 -72 17
-9 185 -106 375 -215 190 -109 365 -209 390 -223 25 -14 62 -36 82 -49 21 -12
40 -23 43 -23 3 0 38 -19 78 -43 64 -39 164 -97 267 -154 19 -11 112 -64 205
-118 94 -54 185 -107 204 -117 19 -11 112 -64 209 -119 96 -56 189 -103 207
-106 70 -11 144 38 162 107 13 47 9 418 -5 450 -5 14 -20 35 -33 46 -20 17
-168 106 -379 226 -19 11 -96 55 -170 98 -74 43 -151 87 -171 98 -20 11 -128
73 -240 137 -112 65 -220 126 -239 137 -19 11 -51 29 -70 40 -19 11 -132 76
-250 143 -651 374 -757 436 -787 459 -20 16 -36 41 -42 64 -5 22 -9 659 -9
1622 0 1262 3 1591 13 1616 20 49 77 87 130 87 38 0 75 -19 292 -143 136 -79
263 -151 281 -162 57 -32 90 -51 502 -290 223 -129 426 -246 451 -260 79 -44
87 -51 108 -88 21 -37 21 -45 23 -1382 l3 -1344 24 -35 c15 -23 59 -55 128
-94 57 -33 111 -64 121 -70 143 -84 165 -91 226 -70 45 16 75 46 90 89 8 23
11 915 11 3102 l0 3069 -23 33 c-37 50 -107 78 -164 65z m-481 -1066 c65 -44
63 -21 63 -728 0 -636 0 -642 -21 -679 -22 -39 -71 -69 -120 -72 -30 -2 -78
16 -134 51 -22 13 -96 57 -165 96 -69 40 -213 123 -320 185 -107 62 -214 124
-238 137 -319 180 -345 202 -345 289 0 78 25 98 343 277 19 11 76 43 125 72
50 29 106 62 125 73 122 68 497 286 506 293 23 18 90 36 119 32 17 -3 44 -14
62 -26z"/>
<path d="M4275 7755 c-36 -15 -70 -50 -83 -85 -6 -15 -9 -1196 -8 -3100 l1
-3075 24 -34 c30 -41 92 -71 138 -65 34 4 347 179 391 218 13 12 29 30 35 41
8 14 11 392 12 1361 0 1305 1 1341 19 1370 11 16 24 34 30 40 6 5 263 156 571
334 308 177 657 379 775 448 177 102 222 124 256 125 52 1 102 -28 129 -73 20
-35 20 -47 21 -1625 1 -1787 7 -1647 -73 -1698 -35 -23 -1157 -667 -1263 -725
-25 -13 -49 -28 -55 -32 -5 -4 -30 -19 -55 -32 -25 -14 -85 -49 -135 -78 -49
-29 -108 -62 -130 -74 -51 -29 -308 -177 -504 -291 -199 -116 -190 -99 -188
-380 2 -240 8 -259 82 -295 78 -38 67 -42 415 158 129 74 260 149 290 166 31
17 153 87 273 156 120 69 232 133 250 143 122 70 396 227 792 455 253 145 480
276 505 290 25 13 88 50 140 80 52 30 115 66 140 80 60 33 90 61 106 98 11 26
13 419 13 2220 0 1310 -4 2203 -10 2225 -9 35 -40 72 -78 93 -12 6 -65 36
-118 67 -54 31 -114 66 -133 76 -19 11 -57 34 -85 50 -27 17 -264 153 -525
303 -261 150 -527 303 -590 340 -63 37 -137 80 -165 95 -27 16 -83 48 -123 72
-41 24 -76 43 -78 43 -2 0 -21 11 -42 24 -31 19 -342 200 -472 274 -19 11
-114 65 -211 121 -185 107 -227 121 -284 96z m764 -1069 c20 -13 160 -94 311
-181 151 -87 376 -216 500 -288 124 -71 235 -139 248 -150 29 -27 46 -86 38
-131 -7 -38 -55 -92 -103 -116 -15 -8 -52 -29 -81 -47 -29 -18 -54 -33 -56
-33 -2 0 -41 -22 -87 -49 -280 -161 -355 -205 -383 -222 -17 -10 -38 -22 -46
-26 -8 -4 -58 -32 -110 -63 -52 -31 -102 -59 -110 -63 -8 -4 -24 -13 -35 -20
-97 -60 -160 -89 -189 -89 -50 0 -103 29 -128 71 l-23 36 0 650 c0 632 1 651
20 684 47 80 141 95 234 37z"/>
</g>
</svg>
